<svg width="44" height="44" viewBox="0 0 44 44" fill="none" xmlns="http://www.w3.org/2000/svg">
<g id="Mailbox">
<path id="Vector" opacity="0.2" d="M39.875 30.25V19.9375C39.875 17.5671 38.9334 15.2938 37.2573 13.6177C35.5812 11.9416 33.3079 11 30.9375 11H13.0625C15.4329 11 17.7062 11.9416 19.3823 13.6177C21.0584 15.2938 22 17.5671 22 19.9375V31.625H38.5C38.8647 31.625 39.2144 31.4801 39.4723 31.2223C39.7301 30.9644 39.875 30.6147 39.875 30.25Z" fill="#057942"/>
<path id="Vector_2" d="M16.5 26.125H9.625" stroke="#057942" stroke-width="1.5" stroke-linecap="round" stroke-linejoin="round"/>
<path id="Vector_3" d="M27.5 24.75V4.125H33" stroke="#057942" stroke-width="1.5" stroke-linecap="round" stroke-linejoin="round"/>
<path id="Vector_4" d="M39.875 30.25V19.9375C39.875 17.5671 38.9334 15.2938 37.2573 13.6177C35.5812 11.9416 33.3079 11 30.9375 11H13.0625C15.4329 11 17.7062 11.9416 19.3823 13.6177C21.0584 15.2938 22 17.5671 22 19.9375V31.625H38.5C38.8647 31.625 39.2144 31.4801 39.4723 31.2223C39.7301 30.9644 39.875 30.6147 39.875 30.25Z" stroke="#057942" stroke-width="1.5" stroke-linecap="round" stroke-linejoin="round"/>
<path id="Vector_5" d="M22 38.5V31.625H5.5C5.13533 31.625 4.78559 31.4801 4.52773 31.2223C4.26987 30.9644 4.125 30.6147 4.125 30.25V19.9375C4.125 17.5671 5.06663 15.2938 6.74273 13.6177C8.41884 11.9416 10.6921 11 13.0625 11" stroke="#057942" stroke-width="1.5" stroke-linecap="round" stroke-linejoin="round"/>
</g>
</svg>
