<svg width="33" height="32" viewBox="0 0 33 32" fill="none" xmlns="http://www.w3.org/2000/svg">
<path opacity="0.2" d="M16.6667 20H12.6667V16L21.6667 7L25.6667 11L16.6667 20Z" fill="#07AA5C"/>
<path d="M16.6667 20H12.6667V16L24.6667 4L28.6667 8L16.6667 20Z" stroke="#07AA5C" stroke-width="1.5" stroke-linecap="round" stroke-linejoin="round"/>
<path d="M21.6667 7L25.6667 11" stroke="#07AA5C" stroke-width="1.5" stroke-linecap="round" stroke-linejoin="round"/>
<path d="M27.667 16V26C27.667 26.2652 27.5616 26.5196 27.3741 26.7071C27.1866 26.8946 26.9322 27 26.667 27H6.66699C6.40178 27 6.14742 26.8946 5.95989 26.7071C5.77235 26.5196 5.66699 26.2652 5.66699 26V6C5.66699 5.73478 5.77235 5.48043 5.95989 5.29289C6.14742 5.10536 6.40178 5 6.66699 5H16.667" stroke="#07AA5C" stroke-width="1.5" stroke-linecap="round" stroke-linejoin="round"/>
</svg>
