<svg width="44" height="44" viewBox="0 0 44 44" fill="none" xmlns="http://www.w3.org/2000/svg">
<path opacity="0.2" d="M9.36031 34.6397C7.77906 33.0584 8.8275 29.7361 8.02313 27.7905C7.18781 25.7813 4.125 24.1484 4.125 22C4.125 19.8516 7.18781 18.2187 8.02313 16.2095C8.8275 14.2656 7.77906 10.9416 9.36031 9.36031C10.9416 7.77906 14.2656 8.8275 16.2095 8.02313C18.2273 7.18781 19.8516 4.125 22 4.125C24.1484 4.125 25.7813 7.18781 27.7905 8.02313C29.7361 8.8275 33.0584 7.77906 34.6397 9.36031C36.2209 10.9416 35.1725 14.2639 35.9769 16.2095C36.8122 18.2273 39.875 19.8516 39.875 22C39.875 24.1484 36.8122 25.7813 35.9769 27.7905C35.1725 29.7361 36.2209 33.0584 34.6397 34.6397C33.0584 36.2209 29.7361 35.1725 27.7905 35.9769C25.7813 36.8122 24.1484 39.875 22 39.875C19.8516 39.875 18.2187 36.8122 16.2095 35.9769C14.2656 35.1725 10.9416 36.2209 9.36031 34.6397Z" fill="#07AA5C"/>
<path d="M9.36031 34.6397C7.77906 33.0584 8.8275 29.7361 8.02313 27.7905C7.18781 25.7813 4.125 24.1484 4.125 22C4.125 19.8516 7.18781 18.2187 8.02313 16.2095C8.8275 14.2656 7.77906 10.9416 9.36031 9.36031C10.9416 7.77906 14.2656 8.8275 16.2095 8.02313C18.2273 7.18781 19.8516 4.125 22 4.125C24.1484 4.125 25.7813 7.18781 27.7905 8.02313C29.7361 8.8275 33.0584 7.77906 34.6397 9.36031C36.2209 10.9416 35.1725 14.2639 35.9769 16.2095C36.8122 18.2273 39.875 19.8516 39.875 22C39.875 24.1484 36.8122 25.7813 35.9769 27.7905C35.1725 29.7361 36.2209 33.0584 34.6397 34.6397C33.0584 36.2209 29.7361 35.1725 27.7905 35.9769C25.7813 36.8122 24.1484 39.875 22 39.875C19.8516 39.875 18.2187 36.8122 16.2095 35.9769C14.2656 35.1725 10.9416 36.2209 9.36031 34.6397Z" stroke="#07AA5C" stroke-width="1.5" stroke-linecap="round" stroke-linejoin="round"/>
<path d="M16.5 19.25C18.0188 19.25 19.25 18.0188 19.25 16.5C19.25 14.9812 18.0188 13.75 16.5 13.75C14.9812 13.75 13.75 14.9812 13.75 16.5C13.75 18.0188 14.9812 19.25 16.5 19.25Z" stroke="#07AA5C" stroke-width="1.5" stroke-linecap="round" stroke-linejoin="round"/>
<path d="M27.5 30.25C29.0188 30.25 30.25 29.0188 30.25 27.5C30.25 25.9812 29.0188 24.75 27.5 24.75C25.9812 24.75 24.75 25.9812 24.75 27.5C24.75 29.0188 25.9812 30.25 27.5 30.25Z" stroke="#07AA5C" stroke-width="1.5" stroke-linecap="round" stroke-linejoin="round"/>
<path d="M15.125 28.875L28.875 15.125" stroke="#07AA5C" stroke-width="1.5" stroke-linecap="round" stroke-linejoin="round"/>
</svg>
