<svg width="33" height="32" viewBox="0 0 33 32" fill="none" xmlns="http://www.w3.org/2000/svg">
<g id="Wallet">
<path id="Vector" opacity="0.2" d="M5.33374 23C5.33374 23.5304 5.54445 24.0391 5.91953 24.4142C6.2946 24.7893 6.80331 25 7.33374 25H27.3337C27.599 25 27.8533 24.8946 28.0408 24.7071C28.2284 24.5196 28.3337 24.2652 28.3337 24V10C28.3337 9.73478 28.2284 9.48043 28.0408 9.29289C27.8533 9.10536 27.599 9 27.3337 9H7.33374C6.80331 9 6.2946 8.78929 5.91953 8.41421C5.54445 8.03914 5.33374 7.53043 5.33374 7V23Z" fill="#07AA5C"/>
<path id="Vector_2" d="M5.33374 7V23C5.33374 23.5304 5.54445 24.0391 5.91953 24.4142C6.2946 24.7893 6.80331 25 7.33374 25H27.3337C27.599 25 27.8533 24.8946 28.0408 24.7071C28.2284 24.5196 28.3337 24.2652 28.3337 24V10C28.3337 9.73478 28.2284 9.48043 28.0408 9.29289C27.8533 9.10536 27.599 9 27.3337 9H7.33374C6.80331 9 6.2946 8.78929 5.91953 8.41421C5.54445 8.03914 5.33374 7.53043 5.33374 7ZM5.33374 7C5.33374 6.46957 5.54445 5.96086 5.91953 5.58579C6.2946 5.21071 6.80331 5 7.33374 5H24.3337" stroke="#07AA5C" stroke-width="1.5" stroke-linecap="round" stroke-linejoin="round"/>
<path id="Vector_3" d="M23.5835 16.5C23.5835 16.9142 23.2477 17.25 22.8335 17.25C22.4193 17.25 22.0835 16.9142 22.0835 16.5C22.0835 16.0858 22.4193 15.75 22.8335 15.75C23.2477 15.75 23.5835 16.0858 23.5835 16.5Z" fill="#07AA5C" stroke="#07AA5C" stroke-width="1.5"/>
</g>
</svg>
